<svg width="16" height="8" viewBox="0 0 16 8" fill="none" xmlns="http://www.w3.org/2000/svg">
<path d="M8.01832 7.99772C6.15864 8.07217 3.41394 6.30875 1.92398 5.24834C1.69349 5.08432 0.476398 4.31152 0.500349 4.01087C0.52034 3.7602 0.956327 3.48927 1.13255 3.3529C2.90909 1.97821 5.62231 0.0480371 7.83976 0.0137007C9.78389 -0.181932 12.5897 1.7646 14.0408 2.84551L14.75 3.37062C14.9168 3.49414 15.3599 3.75909 15.3403 4.00698C15.314 4.33801 14.2941 4.9606 14.04 5.14598C12.6 6.19645 9.8329 8.04607 8.01832 7.99772ZM7.71468 0.744241C6.80253 0.850691 6.03402 1.19152 5.45205 1.92271C3.68785 4.13932 5.24662 7.39005 8.19838 7.28152C11.1768 6.96581 12.2108 3.21393 9.97225 1.44791C9.29695 0.91508 8.56479 0.72373 7.71468 0.744241ZM11.3188 1.91233C12.1088 3.17433 12.0257 4.71006 11.3937 6.00699C11.9336 5.75287 12.428 5.35933 12.9277 5.03525C13.4039 4.69617 13.8718 4.33671 14.3574 4.0121C13.9618 3.65342 11.6959 2.00521 11.3188 1.91233ZM4.55567 1.91233C3.48618 2.55258 2.4572 3.24645 1.47306 4.0121C1.95877 4.38273 2.45733 4.74771 2.96328 5.09023C3.47151 5.40854 4.0305 5.80051 4.55567 6.07008C4.02953 5.09938 3.84662 3.97394 4.16486 2.90393C4.21854 2.72329 4.55717 1.98983 4.55567 1.91233Z" fill="#222227"/>
<path d="M8.43767 5.28926C8.20419 5.42927 7.96046 5.5966 7.69116 5.65567C6.30362 5.95996 6.36742 3.96436 6.50678 3.14548C6.58344 2.69476 6.89811 2.40326 7.34546 2.32115C7.81104 2.25689 8.17745 2.56462 8.55437 2.7866C9.11083 3.11426 9.8219 3.43315 9.62639 4.2334C9.48833 4.79849 8.8893 5.01749 8.43767 5.28926ZM7.40868 3.04922C7.07096 3.21298 7.19487 4.68354 7.24862 4.79031C7.44087 5.1721 8.05393 4.63557 8.27377 4.51984C8.48953 4.40268 9.08499 4.20192 8.8682 3.85648C8.78278 3.72043 7.61989 3.0387 7.40868 3.04922Z" fill="#219BF5"/>
</svg>
